STARTFONT 2.1
COMMENT "$XConsortium: us14x26.bdf /main/2 1996/10/29 18:46:11 drk $"
COMMENT "Hand-pixeled glyphs created with modified X Font Editor (Xfed)"
FONT -HP-HP User-Medium-R-Normal-Serif-21-210-72-72-M-140-ISO8859-1
SIZE 21 72 72 
FONTBOUNDINGBOX 14 26 0 -6
STARTPROPERTIES 25
COMMENT "Begin X Logical Font Description (XLFD) Version 1.5"
COPYRIGHT "(c) Copyright 1994, Hewlett Packard Company"
NOTICE "Created by the User Interaction Design Group, July 1994."
NOTICE "Hewlett Packard Company, 3000 Hanover St., Palo Alto, CA 94303, USA"
FONTNAME_REGISTRY ""
FOUNDRY "HP"
FAMILY_NAME "HP User"
WEIGHT_NAME "Medium"
SLANT "R"
ADD_STYLE_NAME "Serif"
SETWIDTH_NAME "Normal"
PIXEL_SIZE 21
POINT_SIZE 210
RESOLUTION_X 72
RESOLUTION_Y 72
SPACING "M"
AVERAGE_WIDTH 140
CHARSET_REGISTRY "ISO8859"
CHARSET_ENCODING "1"
COMMENT "End X Logical Font Description (XLFD)"
CHARSET_COLLECTIONS "ISO8859-1"
FULL_NAME "HP User14x26"
CAP_HEIGHT 16
X_HEIGHT 10
FONT_ASCENT 20
FONT_DESCENT 6
DEFAULT_CHAR 32
COMMENT "End of Font Properties"
ENDPROPERTIES
CHARS 223
STARTCHAR Null
ENCODING 0
SWIDTH 666 0
DWIDTH 14 0
BBX 12 26 1 -6
BITMAP
0000
8800
c800
C800
A800
A800
9800
9800
8800
0000
1100
1100
1100
1100
1100
1100
0E00
0000
0100
0100
0100
0100
0100
0100
01F0
0000
ENDCHAR
STARTCHAR StartOfHeading
ENCODING 1
SWIDTH 666 0
DWIDTH 14 0
BBX 12 26 1 -6
BITMAP
0000
0000
7000
8800
8000
7000
0800
8800
7000
0000
0E00
1100
1100
1100
1100
1100
0E00
0000
0110
0110
0110
01F0
0110
0110
0110
0000
ENDCHAR
STARTCHAR StartOfText
ENCODING 2
SWIDTH 666 0
DWIDTH 14 0
BBX 12 26 1 -6
BITMAP
0000
0000
7000
8800
8000
7000
0800
8800
7000
0000
1F00
0400
0400
0400
0400
0400
0400
0000
0110
0110
00A0
0040
00A0
0110
0110
0000
ENDCHAR
STARTCHAR EndOfText
ENCODING 3
SWIDTH 666 0
DWIDTH 14 0
BBX 12 26 1 -6
BITMAP
0000
0000
F800
8000
8000
F000
8000
8000
F800
0000
1F00
0400
0400
0400
0400
0400
0400
0000
0110
0110
00A0
0040
00A0
0110
0110
0000
ENDCHAR
STARTCHAR EndOfTransmit
ENCODING 4
SWIDTH 666 0
DWIDTH 14 0
BBX 12 26 1 -6
BITMAP
0000
0000
F800
8000
8000
F000
8000
8000
F800
0000
0E00
1100
1100
1100
1100
1100
0E00
0000
01F0
0040
0040
0040
0040
0040
0040
0000
ENDCHAR
STARTCHAR Enquiry
ENCODING 5
SWIDTH 666 0
DWIDTH 14 0
BBX 12 26 1 -6
BITMAP
0000
0000
F800
8000
8000
F000
8000
8000
F800
0000
1100
1900
1500
1500
1300
1300
1100
0000
00E0
0110
0110
0110
0110
0150
00E0
0030
ENDCHAR
STARTCHAR Acknowledge
ENCODING 6
SWIDTH 666 0
DWIDTH 14 0
BBX 12 26 1 -6
BITMAP
0000
0000
7000
8800
8800
F800
8800
8800
8800
0000
0E00
1100
1000
1000
1000
1100
0E00
0000
0110
0120
0140
01a0
0120
0110
0110
0000
ENDCHAR
STARTCHAR Bell
ENCODING 7
SWIDTH 666 0
DWIDTH 14 0
BBX 12 26 1 -6
BITMAP
0000
0100
0200
0F00
1080
1080
2040
2040
2040
2040
2040
4020
4020
4020
4020
4020
4020
8010
8010
FFF0
0180
01c0
0080
0000
0000
0000
ENDCHAR
STARTCHAR BackSpace
ENCODING 8
SWIDTH 666 0
DWIDTH 14 0
BBX 12 26 1 -6
BITMAP
0000
0000
F800
4400
4400
4400
7800
4400
4400
4400
4400
F800
0000
01E0
0210
0210
0200
0180
0060
0010
0210
0210
01E0
0000
0000
0000
ENDCHAR
STARTCHAR HorizontalTab
ENCODING 9
SWIDTH 666 0
DWIDTH 14 0
BBX 12 26 1 -6
BITMAP
0000
0000
8400
8400
8400
8400
FC00
8400
8400
8400
8400
8400
0000
07F0
0080
0080
0080
0080
0080
0080
0080
0080
0080
0000
0000
0000
ENDCHAR
STARTCHAR LineFeed
ENCODING 10
SWIDTH 666 0
DWIDTH 14 0
BBX 12 26 1 -6
BITMAP
0000
0000
8000
8000
8000
8000
8000
8000
8000
8000
8000
FC00
0000
03F0
0200
0200
0200
03E0
0200
0200
0200
0200
0200
0000
0000
0000
ENDCHAR
STARTCHAR VerticalTab
ENCODING 11
SWIDTH 666 0
DWIDTH 14 0
BBX 12 26 1 -6
BITMAP
0000
0000
8200
8200
4400
4400
4400
2800
2800
2800
1000
1000
1000
07F0
0080
0080
0080
0080
0080
0080
0080
0080
0080
0000
0000
0000
ENDCHAR
STARTCHAR FormFeed
ENCODING 12
SWIDTH 666 0
DWIDTH 14 0
BBX 12 26 1 -6
BITMAP
0000
0000
FC00
8000
8000
8000
F800
8000
8000
8000
8000
8000
0000
03F0
0200
0200
0200
03E0
0200
0200
0200
0200
0200
0000
0000
0000
ENDCHAR
STARTCHAR CarriageReturn
ENCODING 13
SWIDTH 666 0
DWIDTH 14 0
BBX 13 26 1 -6
BITMAP
0000
0000
7800
8400
8400
8000
8000
8000
8000
8400
8400
7800
0000
03E0
0110
0110
0110
01E0
0120
0110
0110
0110
0398
0000
0000
0000
ENDCHAR
STARTCHAR ShiftOut
ENCODING 14
SWIDTH 666 0
DWIDTH 14 0
BBX 12 26 1 -6
BITMAP
0000
0000
7800
8400
8400
8000
6000
1800
0400
8400
8400
7800
0000
01E0
0210
0210
0210
0210
0210
0210
0210
0210
01E0
0000
0000
0000
ENDCHAR
STARTCHAR ShiftIn
ENCODING 15
SWIDTH 666 0
DWIDTH 14 0
BBX 11 26 1 -6
BITMAP
0000
0000
7800
8400
8400
8000
6000
1800
0400
8400
8400
7800
0000
03E0
0080
0080
0080
0080
0080
0080
0080
0080
03E0
0000
0000
0000
ENDCHAR
STARTCHAR DataLinkEscape
ENCODING 16
SWIDTH 666 0
DWIDTH 14 0
BBX 12 26 1 -6
BITMAP
0000
0000
F000
4800
4800
4800
4800
4800
F000
0000
0800
0800
0800
0800
0800
0800
0F80
0000
01F0
0100
0100
01E0
0100
0100
01F0
0000
ENDCHAR
STARTCHAR DevCtrl1orXon
ENCODING 17
SWIDTH 666 0
DWIDTH 14 0
BBX 12 26 1 -6
BITMAP
0000
0000
F000
4800
4800
4800
4800
4800
F000
0000
0700
0880
0800
0800
0800
0880
0700
0000
0020
0060
0020
0020
0020
0020
0070
0000
ENDCHAR
STARTCHAR DeviceControl2
ENCODING 18
SWIDTH 666 0
DWIDTH 14 0
BBX 12 26 1 -6
BITMAP
0000
0000
F000
4800
4800
4800
4800
4800
F000
0000
0700
0880
0800
0800
0800
0880
0700
0000
00E0
0110
0010
0020
0040
0080
01F0
0000
ENDCHAR
STARTCHAR DevCtrl3orXoff
ENCODING 19
SWIDTH 666 0
DWIDTH 14 0
BBX 12 26 1 -6
BITMAP
0000
0000
F000
4800
4800
4800
4800
4800
F000
0000
0700
0880
0800
0800
0800
0880
0700
0000
00E0
0110
0010
0060
0010
0110
00E0
0000
ENDCHAR
STARTCHAR DeviceControl4
ENCODING 20
SWIDTH 666 0
DWIDTH 14 0
BBX 12 26 1 -6
BITMAP
0000
0000
F000
4800
4800
4800
4800
4800
F000
0000
0700
0880
0800
0800
0800
0880
0700
0000
0020
0060
00A0
0120
01F0
0020
0020
0000
ENDCHAR
STARTCHAR NegAcknowledge
ENCODING 21
SWIDTH 666 0
DWIDTH 14 0
BBX 12 26 1 -6
BITMAP
0000
0000
8800
C800
A800
A800
9800
9800
8800
0000
0E00
1100
1100
1F00
1100
1100
1100
0000
0110
0110
0120
0140
01A0
0110
0110
0000
ENDCHAR
STARTCHAR SynchronusIdle
ENCODING 22
SWIDTH 666 0
DWIDTH 14 0
BBX 12 26 1 -6
BITMAP
0000
0000
7000
8800
8000
7000
0800
8800
7000
0000
1100
1100
0A00
0400
0400
0400
0400
0000
0110
0190
0150
0150
0130
0130
0110
0000
ENDCHAR
STARTCHAR EndTransmit
ENCODING 23
SWIDTH 666 0
DWIDTH 14 0
BBX 12 26 1 -6
BITMAP
0000
0000
F800
8000
8000
F000
8000
8000
F800
0000
1F00
0400
0400
0400
0400
0400
0400
0000
03E0
0110
0110
01E0
0110
0110
03E0
0000
ENDCHAR
STARTCHAR Cancel
ENCODING 24
SWIDTH 666 0
DWIDTH 14 0
BBX 12 26 1 -6
BITMAP
0000
0000
7000
8800
8000
8000
8000
8800
7000
0000
0E00
1100
1100
1F00
1100
1100
1100
0000
0110
0190
0150
0150
0130
0130
0110
0000
ENDCHAR
STARTCHAR EndOfMedium
ENCODING 25
SWIDTH 666 0
DWIDTH 14 0
BBX 12 26 1 -6
BITMAP
0000
0000
FC00
8000
8000
8000
F800
8000
8000
8000
8000
FC00
0000
0410
0630
0630
0550
0550
0490
0490
0410
0410
0410
0000
0000
0000
ENDCHAR
STARTCHAR Substitute
ENCODING 26
SWIDTH 666 0
DWIDTH 14 0
BBX 12 26 1 -6
BITMAP
0000
0000
7000
8800
8000
7000
0800
8800
7000
0000
1100
1100
1100
1100
1100
1100
0E00
0000
03E0
0110
0110
01E0
0110
0110
03E0
0000
ENDCHAR
STARTCHAR Escape
ENCODING 27
SWIDTH 666 0
DWIDTH 14 0
BBX 12 26 1 -6
BITMAP
0000
0000
F800
8000
8000
F000
8000
8000
F800
0000
0E00
1100
1000
0E00
0100
1100
0E00
0000
00E0
0110
0100
0100
0100
0110
00E0
0000
ENDCHAR
STARTCHAR FileSeparator
ENCODING 28
SWIDTH 666 0
DWIDTH 14 0
BBX 12 26 1 -6
BITMAP
0000
0000
FC00
8000
8000
8000
F800
8000
8000
8000
8000
8000
0000
01E0
0210
0210
0200
0180
0060
0010
0210
0210
01E0
0000
0000
0000
ENDCHAR
STARTCHAR GroupSeparator
ENCODING 29
SWIDTH 666 0
DWIDTH 14 0
BBX 12 26 1 -6
BITMAP
0000
0000
7800
8400
8400
8000
8000
9C00
8400
8400
8400
7800
0000
01E0
0210
0210
0200
0180
0060
0010
0210
0210
01E0
0000
0000
0000
ENDCHAR
STARTCHAR RecordSeparatr
ENCODING 30
SWIDTH 666 0
DWIDTH 14 0
BBX 12 26 1 -6
BITMAP
0000
0000
F800
4400
4400
4400
7800
4800
4400
4400
4400
e600
0000
01E0
0210
0210
0200
0180
0060
0010
0210
0210
01E0
0000
0000
0000
ENDCHAR
STARTCHAR UnitSeparator
ENCODING 31
SWIDTH 666 0
DWIDTH 14 0
BBX 12 26 1 -6
BITMAP
0000
0000
8400
8400
8400
8400
8400
8400
8400
8400
8400
7800
0000
01E0
0210
0210
0200
0180
0060
0010
0210
0210
01E0
0000
0000
0000
ENDCHAR
STARTCHAR PrintableSpace
ENCODING 32
SWIDTH 666 0
DWIDTH 14 0
BBX 14 26 0 -6
BITMAP
0000
0000
0000
0000
0000
0000
0000
0000
0000
0000
0000
0000
0000
0000
0000
0000
0000
0000
0000
0000
0000
0000
0000
0000
0000
0000
ENDCHAR
STARTCHAR Exclamation
ENCODING 33
SWIDTH 666 0
DWIDTH 14 0
BBX 4 26 5 -6
BITMAP
0000
0000
0000
6000
F000
F000
F000
F000
F000
F000
6000
6000
6000
6000
6000
0000
0000
6000
F000
F000
6000
0000
0000
0000
0000
0000
ENDCHAR
STARTCHAR NeutrlDblQuote
ENCODING 34
SWIDTH 666 0
DWIDTH 14 0
BBX 8 26 3 -6
BITMAP
0000
0000
0000
e700
e700
e700
e700
4200
4200
4200
0000
0000
0000
0000
0000
0000
0000
0000
0000
0000
0000
0000
0000
0000
0000
0000
ENDCHAR
STARTCHAR NumberSign
ENCODING 35
SWIDTH 666 0
DWIDTH 14 0
BBX 10 26 2 -6
BITMAP
0000
0000
0000
3300
3300
3300
3300
3300
ffc0
ffc0
3300
3300
3300
3300
ffc0
ffc0
3300
3300
3300
3300
3300
0000
0000
0000
0000
0000
ENDCHAR
STARTCHAR DollarSign
ENCODING 36
SWIDTH 666 0
DWIDTH 14 0
BBX 10 26 2 -6
BITMAP
0000
0C00
0C00
0C00
3F80
61C0
C0C0
C040
C000
E000
7000
3C00
0F00
0380
01C0
00C0
80C0
C0C0
E180
7F00
0C00
0C00
0C00
0000
0000
0000
ENDCHAR
STARTCHAR PerCentSign
ENCODING 37
SWIDTH 666 0
DWIDTH 14 0
BBX 12 26 1 -6
BITMAP
0000
0000
0000
0060
7860
CCC0
CCC0
CD80
cd80
7b00
0300
0600
0600
0C00
0de0
1b30
1B30
3330
3330
61e0
6000
0000
0000
0000
0000
0000
ENDCHAR
STARTCHAR Ampersand
ENCODING 38
SWIDTH 666 0
DWIDTH 14 0
BBX 13 26 1 -6
BITMAP
0000
0000
0000
1E00
3300
6180
6180
6180
3300
3600
1c00
1c00
3600
6678
6330
c360
C1C0
C0C0
C1c0
6360
3E38
0000
0000
0000
0000
0000
ENDCHAR
STARTCHAR SingleCloseQut
ENCODING 39
SWIDTH 666 0
DWIDTH 14 0
BBX 5 26 4 -6
BITMAP
0000
0000
0000
3000
7800
7800
3800
3000
6000
c000
0000
0000
0000
0000
0000
0000
0000
0000
0000
0000
0000
0000
0000
0000
0000
0000
ENDCHAR
STARTCHAR OpenParen
ENCODING 40
SWIDTH 666 0
DWIDTH 14 0
BBX 6 26 5 -6
BITMAP
0000
0000
0c00
1800
3000
6000
6000
c000
C000
C000
C000
C000
C000
C000
C000
C000
c000
6000
6000
3000
1800
0c00
0000
0000
0000
0000
ENDCHAR
STARTCHAR CloseParen
ENCODING 41
SWIDTH 666 0
DWIDTH 14 0
BBX 6 26 4 -6
BITMAP
0000
0000
c000
6000
3000
1800
1800
0C00
0C00
0C00
0C00
0C00
0C00
0C00
0C00
0C00
0C00
1800
1800
3000
6000
c000
0000
0000
0000
0000
ENDCHAR
STARTCHAR Asterisk
ENCODING 42
SWIDTH 666 0
DWIDTH 14 0
BBX 12 26 1 -6
BITMAP
0000
0000
0000
0000
0000
0000
0600
4620
e670
76e0
3Fc0
1F80
1f80
3Fc0
76e0
e670
4620
0600
0000
0000
0000
0000
0000
0000
0000
0000
ENDCHAR
STARTCHAR PlusSign
ENCODING 43
SWIDTH 666 0
DWIDTH 14 0
BBX 12 26 1 -6
BITMAP
0000
0000
0000
0000
0000
0000
0600
0600
0600
0600
0600
FFF0
FFF0
0600
0600
0600
0600
0600
0000
0000
0000
0000
0000
0000
0000
0000
ENDCHAR
STARTCHAR Comma
ENCODING 44
SWIDTH 666 0
DWIDTH 14 0
BBX 5 26 4 -6
BITMAP
0000
0000
0000
0000
0000
0000
0000
0000
0000
0000
0000
0000
0000
0000
0000
0000
3000
7800
7800
3800
3000
6000
C000
0000
0000
0000
ENDCHAR
STARTCHAR Hyphen
ENCODING 45
SWIDTH 666 0
DWIDTH 14 0
BBX 12 26 1 -6
BITMAP
0000
0000
0000
0000
0000
0000
0000
0000
0000
0000
0000
FFF0
FFF0
0000
0000
0000
0000
0000
0000
0000
0000
0000
0000
0000
0000
0000
ENDCHAR
STARTCHAR Period
ENCODING 46
SWIDTH 666 0
DWIDTH 14 0
BBX 4 26 5 -6
BITMAP
0000
0000
0000
0000
0000
0000
0000
0000
0000
0000
0000
0000
0000
0000
0000
0000
6000
F000
F000
6000
0000
0000
0000
0000
0000
0000
ENDCHAR
STARTCHAR Slash
ENCODING 47
SWIDTH 666 0
DWIDTH 14 0
BBX 11 26 2 -6
BITMAP
0000
0000
0060
0060
00c0
00c0
0180
0180
0300
0300
0600
0600
0c00
0c00
1800
1800
3000
3000
6000
6000
c000
c000
0000
0000
0000
0000
ENDCHAR
STARTCHAR Zero
ENCODING 48
SWIDTH 666 0
DWIDTH 14 0
BBX 11 26 1 -6
BITMAP
0000
0000
0000
0000
1F00
3180
60C0
60C0
C060
C060
C460
Ce60
C460
C060
C060
C060
60C0
60C0
3180
1F00
0000
0000
0000
0000
0000
0000
ENDCHAR
STARTCHAR One
ENCODING 49
SWIDTH 666 0
DWIDTH 14 0
BBX 6 26 3 -6
BITMAP
0000
0000
0000
0000
0C00
1C00
3C00
6C00
cC00
0C00
0C00
0C00
0C00
0C00
0C00
0C00
0C00
0C00
0C00
0C00
0000
0000
0000
0000
0000
0000
ENDCHAR
STARTCHAR Two
ENCODING 50
SWIDTH 666 0
DWIDTH 14 0
BBX 10 26 2 -6
BITMAP
0000
0000
0000
0000
3F00
6180
C0C0
C0C0
00C0
00C0
0180
0300
0600
0C00
1800
3000
6000
C040
C0C0
FFC0
0000
0000
0000
0000
0000
0000
ENDCHAR
STARTCHAR Three
ENCODING 51
SWIDTH 666 0
DWIDTH 14 0
BBX 11 26 1 -6
BITMAP
0000
0000
0000
0000
1F00
3180
60C0
60C0
00C0
00C0
0180
0F00
01c0
00C0
0060
0060
0060
C0C0
E1c0
3F00
0000
0000
0000
0000
0000
0000
ENDCHAR
STARTCHAR Four
ENCODING 52
SWIDTH 666 0
DWIDTH 14 0
BBX 11 26 1 -6
BITMAP
0000
0000
0000
0000
0600
0600
0c00
0c00
1800
1800
3080
3180
6180
6180
c180
ffe0
0180
0180
0180
0180
0000
0000
0000
0000
0000
0000
ENDCHAR
STARTCHAR Five
ENCODING 53
SWIDTH 666 0
DWIDTH 14 0
BBX 11 26 1 -6
BITMAP
0000
0000
0000
0000
7FC0
6000
6000
6000
6000
6000
7F00
01C0
00C0
0060
0060
0060
0060
C0C0
E1C0
3F00
0000
0000
0000
0000
0000
0000
ENDCHAR
STARTCHAR Six
ENCODING 54
SWIDTH 666 0
DWIDTH 14 0
BBX 11 26 1 -6
BITMAP
0000
0000
0000
0000
0380
0E00
1800
3000
6000
4000
DF00
F1C0
E0C0
C060
C060
C060
C060
60C0
71C0
1F00
0000
0000
0000
0000
0000
0000
ENDCHAR
STARTCHAR Seven
ENCODING 55
SWIDTH 666 0
DWIDTH 14 0
BBX 11 26 1 -6
BITMAP
0000
0000
0000
0000
FFe0
ffe0
80c0
00c0
0180
0180
0300
0300
0300
0600
0600
0600
0c00
0c00
0c00
0c00
0000
0000
0000
0000
0000
0000
ENDCHAR
STARTCHAR Eight
ENCODING 56
SWIDTH 666 0
DWIDTH 14 0
BBX 11 26 1 -6
BITMAP
0000
0000
0000
0000
1F00
3180
60C0
60C0
60C0
60C0
3180
1F00
71C0
60c0
C060
C060
C060
60C0
71C0
1F00
0000
0000
0000
0000
0000
0000
ENDCHAR
STARTCHAR Nine
ENCODING 57
SWIDTH 666 0
DWIDTH 14 0
BBX 11 26 1 -6
BITMAP
0000
0000
0000
0000
1F00
71C0
60C0
C060
C060
C060
C060
60E0
71E0
1F60
0040
00C0
0180
0300
0E00
3800
0000
0000
0000
0000
0000
0000
ENDCHAR
STARTCHAR Colon
ENCODING 58
SWIDTH 666 0
DWIDTH 14 0
BBX 4 26 5 -6
BITMAP
0000
0000
0000
0000
0000
0000
0000
0000
0000
0000
6000
F000
f000
6000
0000
0000
6000
F000
F000
6000
0000
0000
0000
0000
0000
0000
ENDCHAR
STARTCHAR Simicolon
ENCODING 59
SWIDTH 666 0
DWIDTH 14 0
BBX 5 26 4 -6
BITMAP
0000
0000
0000
0000
0000
0000
0000
0000
0000
0000
3000
7800
7800
3000
0000
0000
3000
7800
7800
3800
3000
6000
C000
0000
0000
0000
ENDCHAR
STARTCHAR LessThanSign
ENCODING 60
SWIDTH 666 0
DWIDTH 14 0
BBX 12 26 1 -6
BITMAP
0000
0000
0000
0000
0000
0000
0030
00F0
03C0
0F00
3C00
F000
F000
3C00
0F00
03C0
00F0
0030
0000
0000
0000
0000
0000
0000
0000
0000
ENDCHAR
STARTCHAR EqualsSign
ENCODING 61
SWIDTH 666 0
DWIDTH 14 0
BBX 12 26 1 -6
BITMAP
0000
0000
0000
0000
0000
0000
0000
0000
0000
FFF0
FFF0
0000
0000
FFF0
FFF0
0000
0000
0000
0000
0000
0000
0000
0000
0000
0000
0000
ENDCHAR
STARTCHAR GreatrThanSign
ENCODING 62
SWIDTH 666 0
DWIDTH 14 0
BBX 12 26 1 -6
BITMAP
0000
0000
0000
0000
0000
0000
C000
F000
3C00
0F00
03C0
00F0
00F0
03C0
0F00
3C00
F000
C000
0000
0000
0000
0000
0000
0000
0000
0000
ENDCHAR
STARTCHAR QuestionMark
ENCODING 63
SWIDTH 666 0
DWIDTH 14 0
BBX 10 26 2 -6
BITMAP
0000
0000
0000
3f00
7380
e1c0
e1c0
e1c0
41c0
0380
0700
0e00
0c00
0c00
0c00
0000
0000
0c00
1e00
1e00
0c00
0000
0000
0000
0000
0000
ENDCHAR
STARTCHAR CommerclAtSign
ENCODING 64
SWIDTH 666 0
DWIDTH 14 0
BBX 12 26 1 -6
BITMAP
0000
0000
0000
0F00
39C0
6060
6060
C030
Ceb0
d9b0
d9b0
d9b0
d9b0
d9b0
dbb0
Cee0
C000
6000
6030
38E0
0F80
0000
0000
0000
0000
0000
ENDCHAR
STARTCHAR A
ENCODING 65
SWIDTH 666 0
DWIDTH 14 0
BBX 14 26 0 -6
BITMAP
0000
0000
0000
0000
0300
0300
0780
0580
0580
0cc0
08c0
08c0
1860
1060
3ff0
3030
2030
6018
6018
f03c
0000
0000
0000
0000
0000
0000
ENDCHAR
STARTCHAR B
ENCODING 66
SWIDTH 666 0
DWIDTH 14 0
BBX 11 26 2 -6
BITMAP
0000
0000
0000
0000
FF00
6180
60C0
60C0
60C0
60C0
6180
7F00
6180
60C0
6060
6060
6060
6060
60C0
FF80
0000
0000
0000
0000
0000
0000
ENDCHAR
STARTCHAR C
ENCODING 67
SWIDTH 666 0
DWIDTH 14 0
BBX 11 26 1 -6
BITMAP
0000
0000
0000
0000
0FA0
39E0
6060
6020
C020
C000
C000
C000
C000
C000
C000
C000
6020
6060
39C0
0F00
0000
0000
0000
0000
0000
0000
ENDCHAR
STARTCHAR D
ENCODING 68
SWIDTH 666 0
DWIDTH 14 0
BBX 12 26 1 -6
BITMAP
0000
0000
0000
0000
FE00
6380
60C0
6060
6060
6030
6030
6030
6030
6030
6030
6060
6060
60C0
6380
FE00
0000
0000
0000
0000
0000
0000
ENDCHAR
STARTCHAR E
ENCODING 69
SWIDTH 666 0
DWIDTH 14 0
BBX 11 26 1 -6
BITMAP
0000
0000
0000
0000
FFE0
6060
6020
6020
6000
6200
6200
7E00
6200
6200
6000
6000
6020
6020
6060
FFE0
0000
0000
0000
0000
0000
0000
ENDCHAR
STARTCHAR F
ENCODING 70
SWIDTH 666 0
DWIDTH 14 0
BBX 11 26 1 -6
BITMAP
0000
0000
0000
0000
FFE0
6060
6020
6020
6000
6200
6200
7E00
6200
6200
6000
6000
6000
6000
6000
F800
0000
0000
0000
0000
0000
0000
ENDCHAR
STARTCHAR G
ENCODING 71
SWIDTH 666 0
DWIDTH 14 0
BBX 12 26 1 -6
BITMAP
0000
0000
0000
0000
0FA0
39E0
6060
6020
C020
C000
C000
C000
C000
C1F0
C060
C060
6060
6060
38E0
0F80
0000
0000
0000
0000
0000
0000
ENDCHAR
STARTCHAR H
ENCODING 72
SWIDTH 666 0
DWIDTH 14 0
BBX 12 26 1 -6
BITMAP
0000
0000
0000
0000
F0F0
6060
6060
6060
6060
6060
6060
7FE0
6060
6060
6060
6060
6060
6060
6060
F0F0
0000
0000
0000
0000
0000
0000
ENDCHAR
STARTCHAR I
ENCODING 73
SWIDTH 666 0
DWIDTH 14 0
BBX 8 26 3 -6
BITMAP
0000
0000
0000
0000
FF00
1800
1800
1800
1800
1800
1800
1800
1800
1800
1800
1800
1800
1800
1800
FF00
0000
0000
0000
0000
0000
0000
ENDCHAR
STARTCHAR J
ENCODING 74
SWIDTH 666 0
DWIDTH 14 0
BBX 11 26 1 -6
BITMAP
0000
0000
0000
0000
0FE0
0180
0180
0180
0180
0180
0180
0180
0180
0180
0180
0180
C180
C180
6300
3E00
0000
0000
0000
0000
0000
0000
ENDCHAR
STARTCHAR K
ENCODING 75
SWIDTH 666 0
DWIDTH 14 0
BBX 13 26 1 -6
BITMAP
0000
0000
0000
0000
F0f0
6060
60c0
6180
6300
6600
6c00
7c00
7c00
6e00
6700
6380
61c0
60e0
6070
F0f8
0000
0000
0000
0000
0000
0000
ENDCHAR
STARTCHAR L
ENCODING 76
SWIDTH 666 0
DWIDTH 14 0
BBX 11 26 1 -6
BITMAP
0000
0000
0000
0000
FC00
3000
3000
3000
3000
3000
3000
3000
3000
3000
3000
3020
3020
3020
3060
FFE0
0000
0000
0000
0000
0000
0000
ENDCHAR
STARTCHAR M
ENCODING 77
SWIDTH 666 0
DWIDTH 14 0
BBX 13 26 1 -6
BITMAP
0000
0000
0000
0000
e038
6030
7070
7070
78f0
58b0
5db0
4d30
4f30
4630
4630
4030
4030
4030
4030
e078
0000
0000
0000
0000
0000
0000
ENDCHAR
STARTCHAR N
ENCODING 78
SWIDTH 666 0
DWIDTH 14 0
BBX 12 26 1 -6
BITMAP
0000
0000
0000
0000
e070
7020
7020
7820
5820
5c20
4c20
4e20
4620
4720
4320
43a0
41a0
41e0
40e0
e0e0
0000
0000
0000
0000
0000
0000
ENDCHAR
STARTCHAR O
ENCODING 79
SWIDTH 666 0
DWIDTH 14 0
BBX 12 26 1 -6
BITMAP
0000
0000
0000
0000
0F00
39C0
6060
6060
C030
C030
C030
C030
C030
C030
C030
C030
6060
6060
39C0
0F00
0000
0000
0000
0000
0000
0000
ENDCHAR
STARTCHAR P
ENCODING 80
SWIDTH 666 0
DWIDTH 14 0
BBX 10 26 2 -6
BITMAP
0000
0000
0000
0000
FF00
6180
60C0
60C0
60C0
60C0
60C0
6180
7F00
6000
6000
6000
6000
6000
6000
F800
0000
0000
0000
0000
0000
0000
ENDCHAR
STARTCHAR Q
ENCODING 81
SWIDTH 666 0
DWIDTH 14 0
BBX 12 26 1 -6
BITMAP
0000
0000
0000
0000
0F00
39C0
6060
6060
C030
C030
C030
C030
C030
C030
C030
C030
6060
6760
3bC0
0f80
0180
00c0
0060
0000
0000
0000
ENDCHAR
STARTCHAR R
ENCODING 82
SWIDTH 666 0
DWIDTH 14 0
BBX 12 26 2 -6
BITMAP
0000
0000
0000
0000
FF00
6180
60C0
60C0
60C0
60C0
6180
7f00
6300
6300
6180
6180
60c0
60c0
6060
f070
0000
0000
0000
0000
0000
0000
ENDCHAR
STARTCHAR S
ENCODING 83
SWIDTH 666 0
DWIDTH 14 0
BBX 11 26 2 -6
BITMAP
0000
0000
0000
0000
3f40
61c0
c0c0
c040
c040
e000
7800
1e00
0780
01c0
00e0
8060
8060
c060
e0c0
bf80
0000
0000
0000
0000
0000
0000
ENDCHAR
STARTCHAR T
ENCODING 84
SWIDTH 666 0
DWIDTH 14 0
BBX 12 26 1 -6
BITMAP
0000
0000
0000
0000
FFF0
C630
8610
8610
0600
0600
0600
0600
0600
0600
0600
0600
0600
0600
0600
1F80
0000
0000
0000
0000
0000
0000
ENDCHAR
STARTCHAR U
ENCODING 85
SWIDTH 666 0
DWIDTH 14 0
BBX 12 26 1 -6
BITMAP
0000
0000
0000
0000
F0f0
6060
6060
6060
6060
6060
6060
6060
6060
6060
6060
6060
6060
6060
30c0
1F80
0000
0000
0000
0000
0000
0000
ENDCHAR
STARTCHAR V
ENCODING 86
SWIDTH 666 0
DWIDTH 14 0
BBX 13 26 1 -6
BITMAP
0000
0000
0000
0000
783c
3018
3018
3810
1830
1830
1c20
0c60
0c60
0e40
06c0
06c0
0780
0380
0380
0380
0000
0000
0000
0000
0000
0000
ENDCHAR
STARTCHAR W
ENCODING 87
SWIDTH 666 0
DWIDTH 14 0
BBX 13 26 1 -6
BITMAP
0000
0000
0000
0000
f038
6310
6310
6310
2330
2330
35a0
35a0
35a0
35a0
14e0
14c0
18c0
18c0
18c0
18c0
0000
0000
0000
0000
0000
0000
ENDCHAR
STARTCHAR X
ENCODING 88
SWIDTH 666 0
DWIDTH 14 0
BBX 13 26 1 -6
BITMAP
0000
0000
0000
0000
F078
6030
3060
38c0
18C0
0d80
0f80
0700
0700
0f80
0d80
18c0
30e0
3060
6030
F078
0000
0000
0000
0000
0000
0000
ENDCHAR
STARTCHAR Y
ENCODING 89
SWIDTH 666 0
DWIDTH 14 0
BBX 12 26 1 -6
BITMAP
0000
0000
0000
0000
F0f0
6060
30c0
30c0
1980
1980
0f00
0F00
0600
0600
0600
0600
0600
0600
0600
1F80
0000
0000
0000
0000
0000
0000
ENDCHAR
STARTCHAR Z
ENCODING 90
SWIDTH 666 0
DWIDTH 14 0
BBX 11 26 2 -6
BITMAP
0000
0000
0000
0000
FFe0
C060
8060
8060
00c0
0180
0300
0600
0C00
1800
3000
6000
c020
c020
C060
FFe0
0000
0000
0000
0000
0000
0000
ENDCHAR
STARTCHAR OpenBracket
ENCODING 91
SWIDTH 666 0
DWIDTH 14 0
BBX 5 26 5 -6
BITMAP
0000
0000
f800
C000
C000
C000
C000
C000
C000
C000
C000
C000
C000
C000
C000
C000
C000
C000
C000
C000
C000
f800
0000
0000
0000
0000
ENDCHAR
STARTCHAR BackSlash
ENCODING 92
SWIDTH 666 0
DWIDTH 14 0
BBX 11 26 2 -6
BITMAP
0000
0000
c000
c000
6000
6000
3000
3000
1800
1800
0c00
0c00
0600
0600
0300
0300
0180
0180
00c0
00c0
0060
0060
0000
0000
0000
0000
ENDCHAR
STARTCHAR CloseBracket
ENCODING 93
SWIDTH 666 0
DWIDTH 14 0
BBX 5 26 4 -6
BITMAP
0000
0000
f800
1800
1800
1800
1800
1800
1800
1800
1800
1800
1800
1800
1800
1800
1800
1800
1800
1800
1800
f800
0000
0000
0000
0000
ENDCHAR
STARTCHAR Circumflex
ENCODING 94
SWIDTH 666 0
DWIDTH 14 0
BBX 8 26 3 -6
BITMAP
0000
0000
0000
0000
1800
3c00
6600
8100
0000
0000
0000
0000
0000
0000
0000
0000
0000
0000
0000
0000
0000
0000
0000
0000
0000
0000
ENDCHAR
STARTCHAR Underscore
ENCODING 95
SWIDTH 666 0
DWIDTH 14 0
BBX 14 26 0 -6
BITMAP
0000
0000
0000
0000
0000
0000
0000
0000
0000
0000
0000
0000
0000
0000
0000
0000
0000
0000
0000
0000
FFFC
0000
0000
0000
0000
0000
ENDCHAR
STARTCHAR SingleOpenQuot
ENCODING 96
SWIDTH 666 0
DWIDTH 14 0
BBX 5 26 4 -6
BITMAP
0000
0000
1800
3000
6000
e000
f000
F000
6000
0000
0000
0000
0000
0000
0000
0000
0000
0000
0000
0000
0000
0000
0000
0000
0000
0000
ENDCHAR
STARTCHAR a
ENCODING 97
SWIDTH 666 0
DWIDTH 14 0
BBX 12 26 1 -6
BITMAP
0000
0000
0000
0000
0000
0000
0000
0000
0000
0000
1F80
31c0
60c0
00c0
1Fc0
70c0
c0c0
c1c0
E6d0
7C60
0000
0000
0000
0000
0000
0000
ENDCHAR
STARTCHAR b
ENCODING 98
SWIDTH 666 0
DWIDTH 14 0
BBX 11 26 1 -6
BITMAP
0000
0000
0000
0000
6000
E000
6000
6000
6000
6000
6F00
71C0
60C0
6060
6060
6060
6060
60C0
71C0
6F00
0000
0000
0000
0000
0000
0000
ENDCHAR
STARTCHAR c
ENCODING 99
SWIDTH 666 0
DWIDTH 14 0
BBX 10 26 2 -6
BITMAP
0000
0000
0000
0000
0000
0000
0000
0000
0000
0000
1Fc0
70C0
6040
C000
C000
C000
C000
6040
71C0
1F00
0000
0000
0000
0000
0000
0000
ENDCHAR
STARTCHAR d
ENCODING 100
SWIDTH 666 0
DWIDTH 14 0
BBX 12 26 1 -6
BITMAP
0000
0000
0000
0000
00C0
01C0
00C0
00C0
00C0
00C0
1EC0
71C0
60C0
C0C0
C0C0
C0C0
C0C0
60C0
71d0
1E60
0000
0000
0000
0000
0000
0000
ENDCHAR
STARTCHAR e
ENCODING 101
SWIDTH 666 0
DWIDTH 14 0
BBX 11 26 1 -6
BITMAP
0000
0000
0000
0000
0000
0000
0000
0000
0000
0000
1F00
71C0
60C0
C0e0
FFE0
C000
C000
6020
70E0
1F80
0000
0000
0000
0000
0000
0000
ENDCHAR
STARTCHAR f
ENCODING 102
SWIDTH 666 0
DWIDTH 14 0
BBX 10 26 2 -6
BITMAP
0000
0000
0000
0000
0780
0Cc0
1840
1800
1800
1800
FF80
1800
1800
1800
1800
1800
1800
1800
1800
FF80
0000
0000
0000
0000
0000
0000
ENDCHAR
STARTCHAR g
ENCODING 103
SWIDTH 666 0
DWIDTH 14 0
BBX 11 26 1 -6
BITMAP
0000
0000
0000
0000
0000
0000
0000
0000
0000
0000
3ee0
6380
c180
c180
c180
6300
3e00
7000
3f80
7fc0
c0e0
c060
c060
61c0
3f00
0000
ENDCHAR
STARTCHAR h
ENCODING 104
SWIDTH 666 0
DWIDTH 14 0
BBX 11 26 1 -6
BITMAP
0000
0000
0000
0000
6000
E000
6000
6000
6000
6000
6f80
71C0
60C0
60C0
60C0
60C0
60C0
60C0
60C0
F1E0
0000
0000
0000
0000
0000
0000
ENDCHAR
STARTCHAR i
ENCODING 105
SWIDTH 666 0
DWIDTH 14 0
BBX 8 26 3 -6
BITMAP
0000
0000
0000
0000
0000
1800
3c00
1800
0000
0000
1800
f800
1800
1800
1800
1800
1800
1800
1800
ff00
0000
0000
0000
0000
0000
0000
ENDCHAR
STARTCHAR j
ENCODING 106
SWIDTH 666 0
DWIDTH 14 0
BBX 10 26 0 -6
BITMAP
0000
0000
0000
0000
0000
0180
03c0
0180
0000
0000
0180
1f80
0180
0180
0180
0180
0180
0180
0180
0180
0180
0180
c180
e300
3e00
0000
ENDCHAR
STARTCHAR k
ENCODING 107
SWIDTH 666 0
DWIDTH 14 0
BBX 12 26 1 -6
BITMAP
0000
0000
0000
0000
6000
e000
6000
6000
6000
6000
63e0
6180
6300
6600
6c00
7e00
6300
6180
60c0
f0f0
0000
0000
0000
0000
0000
0000
ENDCHAR
STARTCHAR l
ENCODING 108
SWIDTH 666 0
DWIDTH 14 0
BBX 8 26 3 -6
BITMAP
0000
0000
0000
0000
7800
1800
1800
1800
1800
1800
1800
1800
1800
1800
1800
1800
1800
1800
1800
FF00
0000
0000
0000
0000
0000
0000
ENDCHAR
STARTCHAR m
ENCODING 109
SWIDTH 666 0
DWIDTH 14 0
BBX 14 26 0 -6
BITMAP
0000
0000
0000
0000
0000
0000
0000
0000
0000
0000
6EF0
F398
6318
6318
6318
6318
6318
6318
6318
F7BC
0000
0000
0000
0000
0000
0000
ENDCHAR
STARTCHAR n
ENCODING 110
SWIDTH 666 0
DWIDTH 14 0
BBX 11 26 1 -6
BITMAP
0000
0000
0000
0000
0000
0000
0000
0000
0000
0000
6f80
f1C0
60C0
60C0
60C0
60C0
60C0
60C0
60C0
F1E0
0000
0000
0000
0000
0000
0000
ENDCHAR
STARTCHAR o
ENCODING 111
SWIDTH 666 0
DWIDTH 14 0
BBX 11 26 1 -6
BITMAP
0000
0000
0000
0000
0000
0000
0000
0000
0000
0000
1F00
71C0
60C0
C060
C060
C060
C060
60C0
71C0
1F00
0000
0000
0000
0000
0000
0000
ENDCHAR
STARTCHAR p
ENCODING 112
SWIDTH 666 0
DWIDTH 14 0
BBX 11 26 1 -6
BITMAP
0000
0000
0000
0000
0000
0000
0000
0000
0000
0000
6F00
F1C0
60C0
6060
6060
6060
6060
60C0
71C0
6F00
6000
6000
6000
6000
F800
0000
ENDCHAR
STARTCHAR q
ENCODING 113
SWIDTH 666 0
DWIDTH 14 0
BBX 11 26 1 -6
BITMAP
0000
0000
0000
0000
0000
0000
0000
0000
0000
0000
1E40
71C0
60C0
C0C0
C0C0
C0C0
C0C0
60C0
71C0
1EC0
00C0
00C0
00C0
00C0
03E0
0000
ENDCHAR
STARTCHAR r
ENCODING 114
SWIDTH 666 0
DWIDTH 14 0
BBX 10 26 2 -6
BITMAP
0000
0000
0000
0000
0000
0000
0000
0000
0000
0000
3380
F5c0
3880
3000
3000
3000
3000
3000
3000
FE00
0000
0000
0000
0000
0000
0000
ENDCHAR
STARTCHAR s
ENCODING 115
SWIDTH 666 0
DWIDTH 14 0
BBX 9 26 2 -6
BITMAP
0000
0000
0000
0000
0000
0000
0000
0000
0000
0000
7f00
e300
c100
e000
7c00
1f00
0380
8180
c380
ff00
0000
0000
0000
0000
0000
0000
ENDCHAR
STARTCHAR t
ENCODING 116
SWIDTH 666 0
DWIDTH 14 0
BBX 11 26 2 -6
BITMAP
0000
0000
0000
0000
0000
0000
1800
1800
1800
1800
FFC0
1800
1800
1800
1800
1800
1800
1820
1C60
0Fc0
0000
0000
0000
0000
0000
0000
ENDCHAR
STARTCHAR u
ENCODING 117
SWIDTH 666 0
DWIDTH 14 0
BBX 12 26 1 -6
BITMAP
0000
0000
0000
0000
0000
0000
0000
0000
0000
0000
60C0
E1C0
60C0
60C0
60C0
60C0
60C0
60C0
71d0
3e60
0000
0000
0000
0000
0000
0000
ENDCHAR
STARTCHAR v
ENCODING 118
SWIDTH 666 0
DWIDTH 14 0
BBX 12 26 1 -6
BITMAP
0000
0000
0000
0000
0000
0000
0000
0000
0000
0000
f0f0
6060
3040
30c0
1880
1980
0d00
0f00
0600
0600
0000
0000
0000
0000
0000
0000
ENDCHAR
STARTCHAR w
ENCODING 119
SWIDTH 666 0
DWIDTH 14 0
BBX 14 26 0 -6
BITMAP
0000
0000
0000
0000
0000
0000
0000
0000
0000
0000
f73c
6618
6610
7330
3730
35a0
3da0
19e0
18c0
18c0
0000
0000
0000
0000
0000
0000
ENDCHAR
STARTCHAR x
ENCODING 120
SWIDTH 666 0
DWIDTH 14 0
BBX 11 26 1 -6
BITMAP
0000
0000
0000
0000
0000
0000
0000
0000
0000
0000
F1E0
60C0
3180
1B00
0E00
0E00
1B00
3180
60C0
F1E0
0000
0000
0000
0000
0000
0000
ENDCHAR
STARTCHAR y
ENCODING 121
SWIDTH 666 0
DWIDTH 14 0
BBX 12 26 1 -6
BITMAP
0000
0000
0000
0000
0000
0000
0000
0000
0000
0000
f0f0
6060
7040
30c0
3880
1980
1d00
0f00
0e00
0600
0400
0c00
2800
7800
3000
0000
ENDCHAR
STARTCHAR z
ENCODING 122
SWIDTH 666 0
DWIDTH 14 0
BBX 9 26 2 -6
BITMAP
0000
0000
0000
0000
0000
0000
0000
0000
0000
0000
FF80
C180
8300
0600
0C00
1800
3000
6080
C180
FF80
0000
0000
0000
0000
0000
0000
ENDCHAR
STARTCHAR OpenBrace
ENCODING 123
SWIDTH 666 0
DWIDTH 14 0
BBX 8 26 3 -6
BITMAP
0000
0000
0700
0c00
1800
1800
1800
1800
1800
1800
3000
E000
3000
1800
1800
1800
1800
1800
1800
1800
0c00
0700
0000
0000
0000
0000
ENDCHAR
STARTCHAR LongVertMark
ENCODING 124
SWIDTH 666 0
DWIDTH 14 0
BBX 2 26 6 -6
BITMAP
0000
0000
0000
C000
C000
C000
C000
C000
C000
C000
C000
C000
C000
C000
C000
C000
C000
C000
C000
C000
C000
0000
0000
0000
0000
0000
ENDCHAR
STARTCHAR CloseBrace
ENCODING 125
SWIDTH 666 0
DWIDTH 14 0
BBX 8 26 3 -6
BITMAP
0000
0000
e000
3000
1800
1800
1800
1800
1800
1800
0C00
0700
0C00
1800
1800
1800
1800
1800
1800
1800
3000
e000
0000
0000
0000
0000
ENDCHAR
STARTCHAR OneWavyLine
ENCODING 126
SWIDTH 666 0
DWIDTH 14 0
BBX 10 26 2 -6
BITMAP
0000
0000
0000
0000
0000
0000
0000
0000
0000
0000
7040
fc40
8fc0
8380
0000
0000
0000
0000
0000
0000
0000
0000
0000
0000
0000
0000
ENDCHAR
STARTCHAR MediumShading
ENCODING 127
SWIDTH 666 0
DWIDTH 14 0
BBX 14 26 0 -6
BITMAP
aaa8
5554
aaa8
5554
aaa8
5554
aaa8
5554
aaa8
5554
aaa8
5554
aaa8
5554
aaa8
5554
aaa8
5554
aaa8
5554
aaa8
5554
aaa8
5554
aaa8
5554
ENDCHAR
STARTCHAR InvExclamation
ENCODING 161
SWIDTH 666 0
DWIDTH 14 0
BBX 4 26 5 -6
BITMAP
0000
0000
0000
0000
6000
F000
F000
6000
0000
0000
6000
6000
6000
6000
6000
F000
F000
F000
F000
F000
F000
6000
0000
0000
0000
0000
ENDCHAR
STARTCHAR CentSign
ENCODING 162
SWIDTH 666 0
DWIDTH 14 0
BBX 10 26 1 -6
BITMAP
0000
0000
0000
0000
0000
0600
0600
0600
1FC0
70C0
6040
C000
C000
C000
C000
6040
71C0
1F00
0600
0600
0600
0000
0000
0000
0000
0000
ENDCHAR
STARTCHAR SterlingSign
ENCODING 163
SWIDTH 666 0
DWIDTH 14 0
BBX 11 26 1 -6
BITMAP
0000
0000
0000
0000
0f80
18c0
3040
3000
3000
3000
ff00
3000
3000
ff00
3000
3000
7000
f800
be20
e7c0
0000
0000
0000
0000
0000
0000
ENDCHAR
STARTCHAR CurrencySymbol
ENCODING 164
SWIDTH 666 0
DWIDTH 14 0
BBX 11 26 1 -6
BITMAP
0000
0000
0000
0000
4040
eee0
7bc0
2080
60c0
4040
60c0
2080
7bC0
eee0
4040
0000
0000
0000
0000
0000
0000
0000
0000
0000
0000
0000
ENDCHAR
STARTCHAR Yensign
ENCODING 165
SWIDTH 666 0
DWIDTH 14 0
BBX 12 26 1 -6
BITMAP
0000
0000
0000
0000
F0f0
6060
30c0
30C0
1980
1980
0f00
0F00
0600
7fe0
0600
0600
7fe0
0600
0600
1F80
0000
0000
0000
0000
0000
0000
ENDCHAR
STARTCHAR BrokenVertMark
ENCODING 166
SWIDTH 666 0
DWIDTH 14 0
BBX 2 26 6 -6
BITMAP
0000
0000
0000
C000
C000
C000
C000
C000
C000
C000
C000
0000
0000
C000
C000
C000
C000
C000
C000
C000
C000
0000
0000
0000
0000
0000
ENDCHAR
STARTCHAR SectionMark
ENCODING 167
SWIDTH 666 0
DWIDTH 14 0
BBX 11 26 2 -6
BITMAP
0000
0000
0000
0000
0f00
1980
31c0
3080
3800
1c00
2f00
6380
61c0
70e0
3860
1c60
0f40
0380
01c0
10c0
38c0
1980
0f00
0000
0000
0000
ENDCHAR
STARTCHAR diaeresisAccnt
ENCODING 168
SWIDTH 666 0
DWIDTH 14 0
BBX 7 26 3 -6
BITMAP
0000
0000
0000
0000
4400
ee00
4400
0000
0000
0000
0000
0000
0000
0000
0000
0000
0000
0000
0000
0000
0000
0000
0000
0000
0000
0000
ENDCHAR
STARTCHAR CopyrightSign
ENCODING 169
SWIDTH 666 0
DWIDTH 14 0
BBX 11 26 2 -6
BITMAP
0000
0000
0000
0000
0000
0000
1f00
71c0
4040
df60
b120
b020
b020
b120
de60
4040
71c0
1f00
0000
0000
0000
0000
0000
0000
0000
0000
ENDCHAR
STARTCHAR FemaleOrdinal
ENCODING 170
SWIDTH 666 0
DWIDTH 14 0
BBX 9 26 2 -6
BITMAP
0000
0000
0000
3e00
6300
0300
1f00
7300
c300
c700
7980
0000
ff80
0000
0000
0000
0000
0000
0000
0000
0000
0000
0000
0000
0000
0000
ENDCHAR
STARTCHAR DblOpenAnglQut
ENCODING 171
SWIDTH 666 0
DWIDTH 14 0
BBX 10 26 2 -6
BITMAP
0000
0000
0000
0000
0000
0000
0440
0cc0
1980
3300
6600
cc00
cc00
6600
3300
1980
0cc0
0440
0000
0000
0000
0000
0000
0000
0000
0000
ENDCHAR
STARTCHAR NotSign
ENCODING 172
SWIDTH 666 0
DWIDTH 14 0
BBX 12 26 1 -6
BITMAP
0000
0000
0000
0000
0000
0000
0000
0000
0000
0000
0000
FFF0
FFF0
0030
0030
0030
0030
0000
0000
0000
0000
0000
0000
0000
0000
0000
ENDCHAR
STARTCHAR SoftHyphen
ENCODING 173
SWIDTH 666 0
DWIDTH 14 0
BBX 12 26 1 -6
BITMAP
0000
0000
0000
0000
0000
0000
0000
0000
0000
0000
0000
FFF0
FFF0
0000
0000
0000
0000
0000
0000
0000
0000
0000
0000
0000
0000
0000
ENDCHAR
STARTCHAR RegisTradeMark
ENCODING 174
SWIDTH 666 0
DWIDTH 14 0
BBX 11 26 2 -6
BITMAP
0000
0000
0000
0000
0000
0000
1f00
71c0
4040
de60
9b20
9b20
9e20
9b20
d960
4040
71c0
1f00
0000
0000
0000
0000
0000
0000
0000
0000
ENDCHAR
STARTCHAR macronAccent
ENCODING 175
SWIDTH 666 0
DWIDTH 14 0
BBX 10 26 2 -6
BITMAP
0000
0000
0000
0000
FFc0
FFc0
0000
0000
0000
0000
0000
0000
0000
0000
0000
0000
0000
0000
0000
0000
0000
0000
0000
0000
0000
0000
ENDCHAR
STARTCHAR DegreeSign
ENCODING 176
SWIDTH 666 0
DWIDTH 14 0
BBX 7 26 3 -6
BITMAP
0000
0000
0000
0000
3800
6c00
C600
C600
C600
6c00
3800
0000
0000
0000
0000
0000
0000
0000
0000
0000
0000
0000
0000
0000
0000
0000
ENDCHAR
STARTCHAR PlusOverMinus
ENCODING 177
SWIDTH 666 0
DWIDTH 14 0
BBX 12 26 1 -6
BITMAP
0000
0000
0000
0000
0600
0600
0600
0600
fff0
FFF0
0600
0600
0600
0600
0000
fff0
fff0
0000
0000
0000
0000
0000
0000
0000
0000
0000
ENDCHAR
STARTCHAR SupNumberTwo
ENCODING 178
SWIDTH 666 0
DWIDTH 14 0
BBX 7 26 3 -6
BITMAP
0000
0000
0000
7c00
c600
8600
0600
0c00
1800
3000
6000
c200
fe00
0000
0000
0000
0000
0000
0000
0000
0000
0000
0000
0000
0000
0000
ENDCHAR
STARTCHAR SupNumberThree
ENCODING 179
SWIDTH 666 0
DWIDTH 14 0
BBX 7 26 3 -6
BITMAP
0000
0000
0000
7c00
c600
8600
0600
3c00
0600
0600
8600
c600
7c00
0000
0000
0000
0000
0000
0000
0000
0000
0000
0000
0000
0000
0000
ENDCHAR
STARTCHAR acuteAccent
ENCODING 180
SWIDTH 666 0
DWIDTH 14 0
BBX 5 26 5 -6
BITMAP
0000
0000
0000
0000
3800
7000
c000
0000
0000
0000
0000
0000
0000
0000
0000
0000
0000
0000
0000
0000
0000
0000
0000
0000
0000
0000
ENDCHAR
STARTCHAR muGreek
ENCODING 181
SWIDTH 666 0
DWIDTH 14 0
BBX 12 26 1 -6
BITMAP
0000
0000
0000
0000
0000
0000
0000
0000
0000
0000
1830
1830
1830
1860
3060
3060
30e0
71C0
7FF0
6E70
6000
C000
C000
C000
0000
0000
ENDCHAR
STARTCHAR ParagraphSign
ENCODING 182
SWIDTH 666 0
DWIDTH 14 0
BBX 12 26 1 -6
BITMAP
0000
0000
0000
0000
1ff0
3e60
7e60
7e60
7e60
7e60
7e60
3e60
1e60
0660
0660
0660
0660
0660
0660
0660
0660
0000
0000
0000
0000
0000
ENDCHAR
STARTCHAR middleDot
ENCODING 183
SWIDTH 666 0
DWIDTH 14 0
BBX 4 26 5 -6
BITMAP
0000
0000
0000
0000
0000
0000
0000
0000
0000
0000
6000
f000
f000
6000
0000
0000
0000
0000
0000
0000
0000
0000
0000
0000
0000
0000
ENDCHAR
STARTCHAR cedilla
ENCODING 184
SWIDTH 666 0
DWIDTH 14 0
BBX 7 26 4 -6
BITMAP
0000
0000
0000
0000
0000
0000
0000
0000
0000
0000
0000
0000
0000
0000
0000
0000
0000
0000
0000
0000
1000
3c00
0600
c600
7c00
0000
ENDCHAR
STARTCHAR SupNumberOne
ENCODING 185
SWIDTH 666 0
DWIDTH 14 0
BBX 5 26 4 -6
BITMAP
0000
0000
0000
1800
3800
7800
9800
1800
1800
1800
1800
1800
1800
0000
0000
0000
0000
0000
0000
0000
0000
0000
0000
0000
0000
0000
ENDCHAR
STARTCHAR MaleOrdinal
ENCODING 186
SWIDTH 666 0
DWIDTH 14 0
BBX 9 26 2 -6
BITMAP
0000
0000
0000
3c00
6600
c300
c300
c300
c300
6600
3c00
0000
ff80
0000
0000
0000
0000
0000
0000
0000
0000
0000
0000
0000
0000
0000
ENDCHAR
STARTCHAR DblClosAnglQut
ENCODING 187
SWIDTH 666 0
DWIDTH 14 0
BBX 10 26 2 -6
BITMAP
0000
0000
0000
0000
0000
0000
8800
cc00
6600
3300
1980
0cc0
0cc0
1980
3300
6600
cc00
8800
0000
0000
0000
0000
0000
0000
0000
0000
ENDCHAR
STARTCHAR FracOneFourth
ENCODING 188
SWIDTH 666 0
DWIDTH 14 0
BBX 13 26 1 -6
BITMAP
0000
0000
1800
3800
5800
1800
1808
1818
1830
1860
18c0
0180
0300
0640
0cc0
1880
3180
6120
c330
8230
0630
07F8
0030
0030
0000
0000
ENDCHAR
STARTCHAR FracOneHalf
ENCODING 189
SWIDTH 666 0
DWIDTH 14 0
BBX 13 26 1 -6
BITMAP
0000
0000
1800
3800
5800
1800
1808
1818
1830
1860
18c0
0180
0300
0600
0dF0
1b18
3218
6018
c030
8060
00C0
0180
0308
03F8
0000
0000
ENDCHAR
STARTCHAR FracThreeFour
ENCODING 190
SWIDTH 666 0
DWIDTH 14 0
BBX 13 26 1 -6
BITMAP
0000
7c00
c600
8600
0600
3c00
0608
0618
8630
c660
7cc0
0180
0300
0640
0cc0
1880
3180
6120
c330
8230
0630
07f8
0030
0030
0000
0000
ENDCHAR
STARTCHAR InvertQuestion
ENCODING 191
SWIDTH 666 0
DWIDTH 14 0
BBX 10 26 2 -6
BITMAP
0000
0000
0000
0000
0c00
1e00
1e00
0c00
0000
0000
0c00
0c00
0c00
1c00
3800
7000
e080
e1c0
e1c0
e1c0
7380
3f00
0000
0000
0000
0000
ENDCHAR
STARTCHAR Agrave
ENCODING 192
SWIDTH 666 0
DWIDTH 14 0
BBX 14 26 0 -6
BITMAP
1c00
0e00
0300
0000
0300
0300
0780
0580
0580
0cc0
08c0
08c0
1860
1060
3ff0
3030
2030
6018
6018
f03c
0000
0000
0000
0000
0000
0000
ENDCHAR
STARTCHAR Aacute
ENCODING 193
SWIDTH 666 0
DWIDTH 14 0
BBX 14 26 0 -6
BITMAP
00e0
01c0
0300
0000
0300
0300
0780
0580
0580
0cc0
08c0
08c0
1860
1060
3ff0
3030
2030
6018
6018
f03c
0000
0000
0000
0000
0000
0000
ENDCHAR
STARTCHAR Acircumflex
ENCODING 194
SWIDTH 666 0
DWIDTH 14 0
BBX 14 26 0 -6
BITMAP
0300
0780
0cc0
1020
0300
0300
0780
0580
0580
0cc0
08c0
08c0
1860
1060
3ff0
3030
2030
6018
6018
f03c
0000
0000
0000
0000
0000
0000
ENDCHAR
STARTCHAR Atilde
ENCODING 195
SWIDTH 666 0
DWIDTH 14 0
BBX 14 26 0 -6
BITMAP
1e20
2fa0
23c0
0000
0300
0300
0780
0580
0580
0cc0
08c0
08c0
1860
1060
3ff0
3030
2030
6018
6018
f03c
0000
0000
0000
0000
0000
0000
ENDCHAR
STARTCHAR Adiaeresis
ENCODING 196
SWIDTH 666 0
DWIDTH 14 0
BBX 14 26 0 -6
BITMAP
0880
1dc0
0880
0000
0300
0300
0780
0580
0580
0cc0
08c0
08c0
1860
1060
3ff0
3030
2030
6018
6018
f03c
0000
0000
0000
0000
0000
0000
ENDCHAR
STARTCHAR Abolle
ENCODING 197
SWIDTH 666 0
DWIDTH 14 0
BBX 14 26 0 -6
BITMAP
0780
0cc0
0840
0cc0
0780
0300
0780
0580
0580
0cc0
08c0
08c0
1860
1060
3ff0
3030
2030
6018
6018
f03c
0000
0000
0000
0000
0000
0000
ENDCHAR
STARTCHAR AEdiphthong
ENCODING 198
SWIDTH 666 0
DWIDTH 14 0
BBX 14 26 0 -6
BITMAP
0000
0000
0000
0000
0ffc
078c
0584
0584
0d80
0990
0990
19f0
1190
1190
3f80
2180
2184
6184
618c
f3fc
0000
0000
0000
0000
0000
0000
ENDCHAR
STARTCHAR Ccedilla
ENCODING 199
SWIDTH 666 0
DWIDTH 14 0
BBX 11 26 1 -6
BITMAP
0000
0000
0000
0000
0FA0
39E0
6060
6020
C020
C000
C000
C000
C000
C000
C000
C000
6020
6060
39C0
0F00
0200
0780
00c0
18c0
0F80
0000
ENDCHAR
STARTCHAR Egrave
ENCODING 200
SWIDTH 666 0
DWIDTH 14 0
BBX 11 26 1 -6
BITMAP
3800
1c00
0600
0000
FFE0
6060
6020
6020
6000
6200
6200
7E00
6200
6200
6000
6000
6020
6020
6060
FFE0
0000
0000
0000
0000
0000
0000
ENDCHAR
STARTCHAR Eacute
ENCODING 201
SWIDTH 666 0
DWIDTH 14 0
BBX 11 26 1 -6
BITMAP
01c0
0380
0600
0000
FFE0
6060
6020
6020
6000
6200
6200
7E00
6200
6200
6000
6000
6020
6020
6060
FFE0
0000
0000
0000
0000
0000
0000
ENDCHAR
STARTCHAR Ecircumflex
ENCODING 202
SWIDTH 666 0
DWIDTH 14 0
BBX 11 26 1 -6
BITMAP
0600
0F00
1980
0000
FFE0
6060
6020
6020
6000
6200
6200
7E00
6200
6200
6000
6000
6020
6020
6060
FFE0
0000
0000
0000
0000
0000
0000
ENDCHAR
STARTCHAR Ediaeresis
ENCODING 203
SWIDTH 666 0
DWIDTH 14 0
BBX 11 26 1 -6
BITMAP
1100
3b80
1100
0000
ffe0
6060
6020
6020
6000
6200
6200
7e00
6200
6200
6000
6000
6020
6020
6060
ffe0
0000
0000
0000
0000
0000
0000
ENDCHAR
STARTCHAR Igrave
ENCODING 204
SWIDTH 666 0
DWIDTH 14 0
BBX 8 26 3 -6
BITMAP
E000
7000
1800
0000
FF00
1800
1800
1800
1800
1800
1800
1800
1800
1800
1800
1800
1800
1800
1800
FF00
0000
0000
0000
0000
0000
0000
ENDCHAR
STARTCHAR Iacute
ENCODING 205
SWIDTH 666 0
DWIDTH 14 0
BBX 8 26 3 -6
BITMAP
0700
0e00
1800
0000
ff00
1800
1800
1800
1800
1800
1800
1800
1800
1800
1800
1800
1800
1800
1800
Ff00
0000
0000
0000
0000
0000
0000
ENDCHAR
STARTCHAR Icircumflex
ENCODING 206
SWIDTH 666 0
DWIDTH 14 0
BBX 8 26 3 -6
BITMAP
1800
3c00
6600
0000
FF00
1800
1800
1800
1800
1800
1800
1800
1800
1800
1800
1800
1800
1800
1800
FF00
0000
0000
0000
0000
0000
0000
ENDCHAR
STARTCHAR Idiaeresis
ENCODING 207
SWIDTH 666 0
DWIDTH 14 0
BBX 8 26 3 -6
BITMAP
4400
ee00
4400
0000
ff00
1800
1800
1800
1800
1800
1800
1800
1800
1800
1800
1800
1800
1800
1800
ff00
0000
0000
0000
0000
0000
0000
ENDCHAR
STARTCHAR Eth
ENCODING 208
SWIDTH 666 0
DWIDTH 14 0
BBX 12 26 1 -6
BITMAP
0000
0000
0000
0000
FE00
6380
60C0
6060
6060
6030
6030
Fe30
6030
6030
6030
6060
6060
60C0
6380
FE00
0000
0000
0000
0000
0000
0000
ENDCHAR
STARTCHAR Ntilde
ENCODING 209
SWIDTH 666 0
DWIDTH 14 0
BBX 12 26 1 -6
BITMAP
3c20
4f20
43c0
0000
e070
7020
7020
7820
5820
5c20
4c20
4e20
4620
4720
4320
43a0
41a0
41e0
40e0
e0e0
0000
0000
0000
0000
0000
0000
ENDCHAR
STARTCHAR Ograve
ENCODING 210
SWIDTH 666 0
DWIDTH 14 0
BBX 12 26 1 -6
BITMAP
3800
1c00
0600
0000
0F00
39C0
6060
6060
C030
C030
C030
C030
C030
C030
C030
C030
6060
6060
39C0
0F00
0000
0000
0000
0000
0000
0000
ENDCHAR
STARTCHAR Oacute
ENCODING 211
SWIDTH 666 0
DWIDTH 14 0
BBX 12 26 1 -6
BITMAP
01C0
0380
0600
0000
0F00
39C0
6060
6060
C030
C030
C030
C030
C030
C030
C030
C030
6060
6060
39C0
0F00
0000
0000
0000
0000
0000
0000
ENDCHAR
STARTCHAR Ocircumflex
ENCODING 212
SWIDTH 666 0
DWIDTH 14 0
BBX 12 26 1 -6
BITMAP
0600
0F00
1980
2040
0F00
39C0
6060
6060
C030
C030
C030
C030
C030
C030
C030
C030
6060
6060
39C0
0F00
0000
0000
0000
0000
0000
0000
ENDCHAR
STARTCHAR Otilde
ENCODING 213
SWIDTH 666 0
DWIDTH 14 0
BBX 12 26 1 -6
BITMAP
1c40
2f40
2380
0000
0F00
39C0
6060
6060
C030
C030
C030
C030
C030
C030
C030
C030
6060
6060
39C0
0F00
0000
0000
0000
0000
0000
0000
ENDCHAR
STARTCHAR Odiaeresis
ENCODING 214
SWIDTH 666 0
DWIDTH 14 0
BBX 12 26 1 -6
BITMAP
1100
3b80
1100
0000
0F00
39C0
6060
6060
C030
C030
C030
C030
C030
C030
C030
C030
6060
6060
39C0
0F00
0000
0000
0000
0000
0000
0000
ENDCHAR
STARTCHAR MultiplySign
ENCODING 215
SWIDTH 666 0
DWIDTH 14 0
BBX 12 26 1 -6
BITMAP
0000
0000
0000
0000
0000
0000
c030
e070
70e0
39c0
1f80
0f00
0f00
1f80
39c0
70e0
e070
c030
0000
0000
0000
0000
0000
0000
0000
0000
ENDCHAR
STARTCHAR Ooblique
ENCODING 216
SWIDTH 666 0
DWIDTH 14 0
BBX 12 26 1 -6
BITMAP
0000
0000
0000
0010
0f30
39e0
6060
60e0
c0b0
c1b0
c330
c230
c630
cc30
c830
d830
7060
6060
79c0
cf00
8000
0000
0000
0000
0000
0000
ENDCHAR
STARTCHAR Ugrave
ENCODING 217
SWIDTH 666 0
DWIDTH 14 0
BBX 12 26 1 -6
BITMAP
3800
1c00
0600
0000
F0F0
6060
6060
6060
6060
6060
6060
6060
6060
6060
6060
6060
6060
6060
30C0
1F80
0000
0000
0000
0000
0000
0000
ENDCHAR
STARTCHAR Uacute
ENCODING 218
SWIDTH 666 0
DWIDTH 14 0
BBX 12 26 1 -6
BITMAP
01C0
0380
0600
0000
F0F0
6060
6060
6060
6060
6060
6060
6060
6060
6060
6060
6060
6060
6060
30C0
1F80
0000
0000
0000
0000
0000
0000
ENDCHAR
STARTCHAR Ucircumflex
ENCODING 219
SWIDTH 666 0
DWIDTH 14 0
BBX 12 26 1 -6
BITMAP
0600
0F00
1980
0000
F0F0
6060
6060
6060
6060
6060
6060
6060
6060
6060
6060
6060
6060
6060
30C0
1F80
0000
0000
0000
0000
0000
0000
ENDCHAR
STARTCHAR Udiaeresis
ENCODING 220
SWIDTH 666 0
DWIDTH 14 0
BBX 12 26 1 -6
BITMAP
1100
3b80
1100
0000
f0f0
6060
6060
6060
6060
6060
6060
6060
6060
6060
6060
6060
6060
6060
30c0
1f80
0000
0000
0000
0000
0000
0000
ENDCHAR
STARTCHAR Yacute
ENCODING 221
SWIDTH 666 0
DWIDTH 14 0
BBX 12 26 1 -6
BITMAP
01C0
0380
0600
0000
F0F0
6060
30c0
30C0
1980
1980
0f00
0F00
0600
0600
0600
0600
0600
0600
0600
1F80
0000
0000
0000
0000
0000
0000
ENDCHAR
STARTCHAR Thorn
ENCODING 222
SWIDTH 666 0
DWIDTH 14 0
BBX 10 26 2 -6
BITMAP
0000
0000
0000
0000
F800
6000
6000
7F00
6180
60C0
60C0
60C0
60C0
60C0
6180
7F00
6000
6000
6000
F800
0000
0000
0000
0000
0000
0000
ENDCHAR
STARTCHAR EsZetLigature
ENCODING 223
SWIDTH 666 0
DWIDTH 14 0
BBX 12 26 1 -6
BITMAP
0000
0000
0000
0000
1F00
3180
60C0
60C0
60C0
60C0
6180
67C0
6060
6030
6030
6030
6030
6430
6660
63C0
6000
e000
0000
0000
0000
0000
ENDCHAR
STARTCHAR agrave
ENCODING 224
SWIDTH 666 0
DWIDTH 14 0
BBX 12 26 1 -6
BITMAP
0000
0000
0000
0000
0000
3800
1c00
0600
0000
0000
1F80
31C0
60C0
00C0
1FC0
70C0
C0C0
C1C0
E6d0
7C60
0000
0000
0000
0000
0000
0000
ENDCHAR
STARTCHAR aacute
ENCODING 225
SWIDTH 666 0
DWIDTH 14 0
BBX 12 26 1 -6
BITMAP
0000
0000
0000
0000
0000
01c0
0380
0600
0000
0000
1F80
31C0
60C0
00C0
1FC0
70C0
C0C0
C1C0
E6d0
7C60
0000
0000
0000
0000
0000
0000
ENDCHAR
STARTCHAR acircumflex
ENCODING 226
SWIDTH 666 0
DWIDTH 14 0
BBX 12 26 1 -6
BITMAP
0000
0000
0000
0000
0600
0f00
1980
2040
0000
0000
1F80
31C0
60C0
00C0
1FC0
70C0
C0C0
C1C0
E6d0
7C60
0000
0000
0000
0000
0000
0000
ENDCHAR
STARTCHAR atilde
ENCODING 227
SWIDTH 666 0
DWIDTH 14 0
BBX 12 26 1 -6
BITMAP
0000
0000
0000
0000
0000
1c40
2f40
2380
0000
0000
1F80
31C0
60C0
00C0
1FC0
70C0
C0C0
C1C0
E6d0
7C60
0000
0000
0000
0000
0000
0000
ENDCHAR
STARTCHAR adiaeresis
ENCODING 228
SWIDTH 666 0
DWIDTH 14 0
BBX 12 26 1 -6
BITMAP
0000
0000
0000
0000
0000
1100
3b80
1100
0000
0000
1F80
31C0
60C0
00C0
1FC0
70C0
C0C0
C1C0
E6d0
7C60
0000
0000
0000
0000
0000
0000
ENDCHAR
STARTCHAR abolle
ENCODING 229
SWIDTH 666 0
DWIDTH 14 0
BBX 13 26 1 -6
BITMAP
0000
0000
0000
0f00
1980
1080
1980
0f00
0000
0000
1F80
31C0
60C0
00C0
1FC0
70C0
C0C0
C1C0
E6d0
7C60
0000
0000
0000
0000
0000
0000
ENDCHAR
STARTCHAR aedihthong
ENCODING 230
SWIDTH 666 0
DWIDTH 14 0
BBX 14 26 0 -6
BITMAP
0000
0000
0000
0000
0000
0000
0000
0000
0000
0000
3EF8
679C
030C
030C
1FFC
7300
C300
C304
ef8C
79F8
0000
0000
0000
0000
0000
0000
ENDCHAR
STARTCHAR ccedilla
ENCODING 231
SWIDTH 666 0
DWIDTH 14 0
BBX 10 26 1 -6
BITMAP
0000
0000
0000
0000
0000
0000
0000
0000
0000
0000
1FC0
70C0
6040
C000
C000
C000
C000
6040
71C0
1F00
0400
0E00
0300
3300
1E00
0000
ENDCHAR
STARTCHAR egrave
ENCODING 232
SWIDTH 666 0
DWIDTH 14 0
BBX 11 26 1 -6
BITMAP
0000
0000
0000
0000
0000
3800
1c00
0600
0000
0000
1F00
71C0
60C0
C0e0
FFE0
C000
C000
6020
70E0
1F80
0000
0000
0000
0000
0000
0000
ENDCHAR
STARTCHAR eacute
ENCODING 233
SWIDTH 666 0
DWIDTH 14 0
BBX 11 26 1 -6
BITMAP
0000
0000
0000
0000
0000
01c0
0380
0600
0000
0000
1F00
71C0
60C0
C0e0
FFE0
C000
C000
6020
70E0
1F80
0000
0000
0000
0000
0000
0000
ENDCHAR
STARTCHAR ecircumflex
ENCODING 234
SWIDTH 666 0
DWIDTH 14 0
BBX 11 26 1 -6
BITMAP
0000
0000
0000
0000
0600
0f00
1980
2040
0000
0000
1F00
71C0
60C0
C0e0
FFE0
C000
C000
6020
70E0
1F80
0000
0000
0000
0000
0000
0000
ENDCHAR
STARTCHAR ediaeresis
ENCODING 235
SWIDTH 666 0
DWIDTH 14 0
BBX 11 26 1 -6
BITMAP
0000
0000
0000
0000
0000
1100
3b80
1100
0000
0000
1F00
71C0
60C0
C0e0
FFE0
C000
C000
6020
70E0
1F80
0000
0000
0000
0000
0000
0000
ENDCHAR
STARTCHAR igrave
ENCODING 236
SWIDTH 666 0
DWIDTH 14 0
BBX 10 26 2 -6
BITMAP
0000
0000
0000
0000
0000
7000
3800
0c00
0000
0000
0C00
FC00
0C00
0C00
0C00
0C00
0C00
0C00
0C00
FFC0
0000
0000
0000
0000
0000
0000
ENDCHAR
STARTCHAR iacute
ENCODING 237
SWIDTH 666 0
DWIDTH 14 0
BBX 10 26 2 -6
BITMAP
0000
0000
0000
0000
0000
0380
0700
0c00
0000
0000
0C00
FC00
0C00
0C00
0C00
0C00
0C00
0C00
0C00
FFC0
0000
0000
0000
0000
0000
0000
ENDCHAR
STARTCHAR icircumflex
ENCODING 238
SWIDTH 666 0
DWIDTH 14 0
BBX 10 26 2 -6
BITMAP
0000
0000
0000
0000
0800
1c00
3600
4100
0000
0000
0C00
FC00
0C00
0C00
0C00
0C00
0C00
0C00
0C00
FFC0
0000
0000
0000
0000
0000
0000
ENDCHAR
STARTCHAR idiaeresis
ENCODING 239
SWIDTH 666 0
DWIDTH 14 0
BBX 10 26 2 -6
BITMAP
0000
0000
0000
0000
0000
2200
7700
2200
0000
0000
0C00
FC00
0C00
0C00
0C00
0C00
0C00
0C00
0C00
FFC0
0000
0000
0000
0000
0000
0000
ENDCHAR
STARTCHAR ethIcelandic
ENCODING 240
SWIDTH 666 0
DWIDTH 14 0
BBX 11 26 1 -6
BITMAP
0000
0000
0000
0000
3180
1F00
0e00
3b00
2180
00C0
1fC0
71e0
60e0
C060
C060
C060
C060
60C0
71C0
1F00
0000
0000
0000
0000
0000
0000
ENDCHAR
STARTCHAR ntilde
ENCODING 241
SWIDTH 666 0
DWIDTH 14 0
BBX 11 26 1 -6
BITMAP
0000
0000
0000
0000
0000
3880
5e80
4700
0000
0000
6F80
F1C0
60C0
60C0
60C0
60C0
60C0
60C0
60C0
F1E0
0000
0000
0000
0000
0000
0000
ENDCHAR
STARTCHAR ograve
ENCODING 242
SWIDTH 666 0
DWIDTH 14 0
BBX 11 26 1 -6
BITMAP
0000
0000
0000
0000
0000
3800
1c00
0600
0000
0000
1F00
71C0
60C0
C060
C060
C060
C060
60C0
71C0
1F00
0000
0000
0000
0000
0000
0000
ENDCHAR
STARTCHAR oacute
ENCODING 243
SWIDTH 666 0
DWIDTH 14 0
BBX 11 26 1 -6
BITMAP
0000
0000
0000
0000
0000
01C0
0380
0600
0000
0000
1F00
71C0
60C0
C060
C060
C060
C060
60C0
71C0
1F00
0000
0000
0000
0000
0000
0000
ENDCHAR
STARTCHAR ocircumflex
ENCODING 244
SWIDTH 666 0
DWIDTH 14 0
BBX 11 26 1 -6
BITMAP
0000
0000
0000
0000
0600
0f00
1980
2040
0000
0000
1F00
71C0
60C0
C060
C060
C060
C060
60C0
71C0
1F00
0000
0000
0000
0000
0000
0000
ENDCHAR
STARTCHAR otilde
ENCODING 245
SWIDTH 666 0
DWIDTH 14 0
BBX 11 26 1 -6
BITMAP
0000
0000
0000
0000
0000
1C40
2f40
2380
0000
0000
1F00
71C0
60C0
C060
C060
C060
C060
60C0
71C0
1F00
0000
0000
0000
0000
0000
0000
ENDCHAR
STARTCHAR odiaeresis
ENCODING 246
SWIDTH 666 0
DWIDTH 14 0
BBX 11 26 1 -6
BITMAP
0000
0000
0000
0000
0000
1100
3b80
1100
0000
0000
1F00
71C0
60C0
C060
C060
C060
C060
60C0
71C0
1F00
0000
0000
0000
0000
0000
0000
ENDCHAR
STARTCHAR DivideSign
ENCODING 247
SWIDTH 666 0
DWIDTH 14 0
BBX 12 26 1 -6
BITMAP
0000
0000
0000
0000
0000
0000
0600
0f00
0600
0000
0000
FFF0
FFF0
0000
0000
0600
0f00
0600
0000
0000
0000
0000
0000
0000
0000
0000
ENDCHAR
STARTCHAR ooblique
ENCODING 248
SWIDTH 666 0
DWIDTH 14 0
BBX 11 26 1 -6
BITMAP
0000
0000
0000
0000
0000
0000
0000
0000
0040
00C0
1F80
71C0
63C0
C260
C660
CC60
C860
78C0
71C0
3F00
6000
4000
0000
0000
0000
0000
ENDCHAR
STARTCHAR ugrave
ENCODING 249
SWIDTH 666 0
DWIDTH 14 0
BBX 12 26 1 -6
BITMAP
0000
0000
0000
0000
0000
7000
3800
0c00
0000
0000
60C0
E1C0
60C0
60C0
60C0
60C0
60C0
60C0
71d0
3E60
0000
0000
0000
0000
0000
0000
ENDCHAR
STARTCHAR uacute
ENCODING 250
SWIDTH 666 0
DWIDTH 14 0
BBX 12 26 1 -6
BITMAP
0000
0000
0000
0000
0000
0380
0700
0c00
0000
0000
60C0
E1C0
60C0
60C0
60C0
60C0
60C0
60C0
71d0
3E60
0000
0000
0000
0000
0000
0000
ENDCHAR
STARTCHAR ucircumflex
ENCODING 251
SWIDTH 666 0
DWIDTH 14 0
BBX 12 26 1 -6
BITMAP
0000
0000
0000
0000
0600
0f00
1980
2040
0000
0000
60C0
E1C0
60C0
60C0
60C0
60C0
60C0
60C0
71d0
3E60
0000
0000
0000
0000
0000
0000
ENDCHAR
STARTCHAR udiaeresis
ENCODING 252
SWIDTH 666 0
DWIDTH 14 0
BBX 12 26 1 -6
BITMAP
0000
0000
0000
0000
0000
1100
3b80
1100
0000
0000
60C0
E1C0
60C0
60C0
60C0
60C0
60C0
60C0
71d0
3E60
0000
0000
0000
0000
0000
0000
ENDCHAR
STARTCHAR yacute
ENCODING 253
SWIDTH 666 0
DWIDTH 14 0
BBX 12 26 1 -6
BITMAP
0000
0000
0000
0000
0000
01c0
0380
0600
0000
0000
F0f0
6060
7040
30c0
3880
1980
1d00
0f00
0e00
0600
0400
0C00
2800
7800
3000
0000
ENDCHAR
STARTCHAR thorn
ENCODING 254
SWIDTH 666 0
DWIDTH 14 0
BBX 11 26 1 -6
BITMAP
0000
0000
0000
0000
6000
E000
6000
6000
6000
6000
6F00
71C0
60C0
6060
6060
6060
6060
60C0
71C0
6F00
6000
6000
6000
6000
F800
0000
ENDCHAR
STARTCHAR ydiaeresis
ENCODING 255
SWIDTH 666 0
DWIDTH 14 0
BBX 12 26 1 -6
BITMAP
0000
0000
0000
0000
0000
0880
1dc0
0880
0000
0000
f0f0
6060
7040
30c0
3880
1980
1d00
0f00
0e00
0600
0400
0c00
2800
7800
3000
0000
ENDCHAR
ENDFONT
